<?xml version="1.0" encoding="UTF-8" standalone="no"?>
<!-- Created with Inkscape (http://www.inkscape.org/) -->
<svg xmlns:dc="http://purl.org/dc/elements/1.1/" xmlns:cc="http://creativecommons.org/ns#" xmlns:rdf="http://www.w3.org/1999/02/22-rdf-syntax-ns#" xmlns:svg="http://www.w3.org/2000/svg" xmlns="http://www.w3.org/2000/svg" xmlns:sodipodi="http://sodipodi.sourceforge.net/DTD/sodipodi-0.dtd" xmlns:inkscape="http://www.inkscape.org/namespaces/inkscape" id="svg2" version="1.1" inkscape:version="0.47 r22583" width="186" height="300" xml:space="preserve" sodipodi:docname="IIM Indore.pdf"><metadata id="metadata8"><rdf:RDF><cc:Work rdf:about=""><dc:format>image/svg+xml</dc:format><dc:type rdf:resource="http://purl.org/dc/dcmitype/StillImage"/><dc:title/></cc:Work></rdf:RDF></metadata><defs id="defs6"><inkscape:perspective sodipodi:type="inkscape:persp3d" inkscape:vp_x="0 : 0.5 : 1" inkscape:vp_y="0 : 1000 : 0" inkscape:vp_z="1 : 0.5 : 1" inkscape:persp3d-origin="0.5 : 0.33333333 : 1" id="perspective10"/><clipPath clipPathUnits="userSpaceOnUse" id="clipPath18"><path d="m 18.0309,764.9745 575.9382,0 0,-737.949 -575.9382,0" clip-rule="evenodd" id="path20"/></clipPath><clipPath clipPathUnits="userSpaceOnUse" id="clipPath28"><path d="m 18.0306,92.9302 575.9382,0 0,493.3735 -575.9382,0" clip-rule="evenodd" id="path30"/></clipPath></defs><sodipodi:namedview pagecolor="#ffffff" bordercolor="#666666" borderopacity="1" objecttolerance="10" gridtolerance="10" guidetolerance="10" inkscape:pageopacity="0" inkscape:pageshadow="2" inkscape:window-width="1280" inkscape:window-height="722" id="namedview4" showgrid="false" inkscape:zoom="1.3485026" inkscape:cx="26.647945" inkscape:cy="141.26932" inkscape:window-x="-8" inkscape:window-y="20" inkscape:window-maximized="1" inkscape:current-layer="g12"/><g id="g12" inkscape:groupmode="layer" inkscape:label="IIM Indore" transform="matrix(1.25, 0, 0, -1.25, -344.125, 936.404)"><g id="g2882" transform="matrix(2.35921, 0, 0, 2.35921, -371.816, -1003.39)"><path id="path58" style="fill:#292929;fill-opacity:1;fill-rule:evenodd;stroke:none" d="m 275.8269,673.592 -0.4969,0.5397 1.5803,0 c -0.1619,0.1585 -0.2854,0.3348 -0.3702,0.5293 -0.0848,0.1944 -0.1273,0.3957 -0.1273,0.6049 0,0.4025 0.1568,0.7464 0.4703,1.031 0.3129,0.284 0.6905,0.4263 1.133,0.4263 0.4419,0 0.9431,-0.1834 1.5032,-0.5508 0.5601,-0.3671 1.1276,-0.8853 1.7022,-1.5545 l -0.2211,-0.1619 c -0.4419,0.5108 -0.9045,0.9085 -1.3873,1.1926 -0.4824,0.2846 -0.9414,0.4269 -1.3762,0.4269 -0.3538,0 -0.6539,-0.1063 -0.9008,-0.3186 -0.2469,-0.2126 -0.3702,-0.4658 -0.3702,-0.7614 0,-0.1582 0.0331,-0.3113 0.0992,-0.459 0.0663,-0.1474 0.1621,-0.2823 0.2877,-0.4048 l 0.4972,0 0.4972,-0.5397 -0.9394,0 0,-3.7794 0,-1.08 -0.6633,0.3243 0,0.7557 0,3.7794 -0.9176,0 z m 4.8864,-4.9133 -1.3269,1.404 c -0.3022,0.2951 -0.5341,0.5741 -0.6962,0.8368 -0.1625,0.2625 -0.2435,0.4873 -0.2435,0.6744 0,0.0867 0.0334,0.1624 0.0998,0.2268 0.0663,0.0652 0.1437,0.0975 0.2321,0.0975 0.1177,0 0.2245,-0.0255 0.3203,-0.0757 0.0958,-0.0502 0.1625,-0.1151 0.1996,-0.1945 0.0439,0.0357 0.0788,0.0885 0.1046,0.1568 0.0258,0.068 0.0388,0.1417 0.0388,0.2214 l 0,1.5658 -1.3155,0 -0.4972,0.5397 5.5709,0 0.4975,-0.5397 -0.9394,0 0,-3.7794 0,-1.08 -0.6633,0.4323 0,0.6477 0,1.5114 c -0.1766,-0.1221 -0.3555,-0.2157 -0.5363,-0.2803 -0.1806,-0.0649 -0.3518,-0.0972 -0.5143,-0.0972 -0.1542,0 -0.3163,0.0377 -0.4858,0.1133 -0.1698,0.0754 -0.339,0.1817 -0.5085,0.3184 -0.0369,-0.2157 -0.1109,-0.4014 -0.2211,-0.5559 -0.1109,-0.1548 -0.2396,-0.2571 -0.387,-0.3078 l 1.658,-1.5115 -0.3866,-0.3243 z m -0.0556,2.7533 c 0.2066,0 0.4331,0.0559 0.6795,0.1673 0.2471,0.1117 0.4997,0.2718 0.7577,0.4807 l 0,1.512 -1.9897,0 0,-1.8895 c 0.1029,-0.0868 0.2027,-0.1534 0.2982,-0.2002 0.0964,-0.0467 0.1809,-0.0703 0.2543,-0.0703 z m 2.8188,2.16 -0.4972,0.5397 1.5806,0 c -0.1625,0.1585 -0.2858,0.3348 -0.3702,0.5293 -0.0851,0.1944 -0.127,0.3957 -0.127,0.6049 0,0.4025 0.1562,0.7464 0.4697,1.031 0.3129,0.284 0.6908,0.4263 1.133,0.4263 0.4425,0 0.9431,-0.1834 1.5032,-0.5508 0.5601,-0.3671 1.1276,-0.8853 1.7022,-1.5545 l -0.2205,-0.1619 c -0.4425,0.5108 -0.9049,0.9085 -1.3879,1.1926 -0.4824,0.2846 -0.9414,0.4269 -1.3759,0.4269 -0.3538,0 -0.6542,-0.1063 -0.9009,-0.3186 -0.2469,-0.2126 -0.3702,-0.4658 -0.3702,-0.7614 0,-0.1582 0.0329,-0.3113 0.0992,-0.459 0.0661,-0.1474 0.1625,-0.2823 0.2878,-0.4048 l 0.4972,0 0.4977,-0.5397 -0.9399,0 0,-3.7794 0,-1.08 -0.6634,0.3243 0,0.7557 0,3.7794 -0.9175,0 z m 5.5712,-5.1834 c -0.3682,0 -0.6815,0.1066 -0.9394,0.3186 -0.2583,0.2126 -0.3869,0.466 -0.3869,0.7614 -0.4423,0 -0.8198,0.1114 -1.1331,0.3348 -0.3129,0.2233 -0.4697,0.4895 -0.4697,0.7991 0,0.1944 0.0701,0.36 0.2098,0.4969 0.1403,0.1363 0.3096,0.2046 0.5088,0.2046 0.2061,0 0.4145,-0.0895 0.6242,-0.2695 0.2103,-0.18 0.3155,-0.3598 0.3155,-0.54 0,-0.1299 -0.0445,-0.2574 -0.1329,-0.3833 -0.0885,-0.1258 -0.2098,-0.2321 -0.3649,-0.3186 0.0664,-0.036 0.1458,-0.0632 0.2379,-0.0811 0.0921,-0.0181 0.1973,-0.0269 0.3149,-0.0269 0.0811,0.108 0.1769,0.2032 0.2874,0.286 0.1109,0.0828 0.2362,0.1494 0.3759,0.2001 l 0.3317,-0.4322 c -0.1766,-0.029 -0.3223,-0.099 -0.4366,-0.2104 -0.1142,-0.1117 -0.1715,-0.2395 -0.1715,-0.3832 0,-0.1012 0.0482,-0.1891 0.144,-0.2648 0.0956,-0.0757 0.2135,-0.1134 0.3538,-0.1134 0.265,0 0.5287,0.1078 0.79,0.324 0.2617,0.216 0.4771,0.504 0.6466,0.8638 -0.1398,-0.036 -0.2727,-0.0542 -0.398,-0.0542 -0.3977,0 -0.7996,0.2055 -1.2047,0.6157 -0.4051,0.4105 -0.608,0.8169 -0.608,1.2203 0,0.2951 0.1179,0.5488 0.3537,0.7614 0.2361,0.212 0.5236,0.3183 0.8623,0.3183 l 0.9947,0 0,0.756 -4.3773,0 -0.4972,0.5397 6.113,0 0.4972,-0.5397 -1.0724,0 0,-1.404 -1.4369,0 c -0.2435,0 -0.4515,-0.0791 -0.6247,-0.2375 -0.1729,-0.1582 -0.2597,-0.349 -0.2597,-0.5723 0,-0.2807 0.0848,-0.5001 0.2543,-0.6588 0.1692,-0.1582 0.4051,-0.2373 0.7075,-0.2373 0.1545,0 0.2948,0.0111 0.4198,0.0324 -0.0737,0.1224 -0.1105,0.2126 -0.1105,0.2701 0,0.1511 0.0592,0.2789 0.1771,0.3832 0.1177,0.1046 0.2617,0.1562 0.4312,0.1562 0.184,0 0.3407,-0.0626 0.4697,-0.1888 0.129,-0.1258 0.1936,-0.2786 0.1936,-0.4583 0,-0.0868 -0.0335,-0.1823 -0.0995,-0.2866 -0.0663,-0.1043 -0.1621,-0.2069 -0.2874,-0.3076 l 1.2707,-1.7282 -0.4422,-0.2696 -0.8838,1.5117 c -0.1695,-0.3597 -0.3943,-0.6477 -0.6744,-0.864 -0.28,-0.2157 -0.5712,-0.324 -0.8736,-0.324 z m -2.2105,1.6741 c 0.1471,0.0502 0.2668,0.1347 0.3589,0.2535 0.0921,0.119 0.1383,0.2503 0.1383,0.3945 0,0.0573 -0.0218,0.108 -0.0663,0.1511 -0.0439,0.0431 -0.0958,0.0647 -0.1551,0.0647 -0.125,0 -0.2483,-0.0596 -0.3699,-0.1781 -0.1216,-0.1187 -0.1822,-0.2392 -0.1822,-0.3619 0,-0.0647 0.0257,-0.1276 0.0771,-0.1891 0.0515,-0.0612 0.1182,-0.106 0.1992,-0.1347 z m 5.2064,1.1339 c 0,0.0575 0.0278,0.1074 0.0831,0.1505 0.055,0.0434 0.1196,0.0649 0.193,0.0649 l 0.3317,0 0,2.16 -0.9839,0 -0.4972,0.5397 5.0187,0 0.4972,-0.5397 -0.9397,0 0,-3.7794 0,-1.08 -0.663,0.3243 0,0.7557 0,0.972 -1.7688,0 0,-0.3781 c 0,-0.0862 -0.0218,-0.1619 -0.0664,-0.2268 -0.0439,-0.0646 -0.0958,-0.097 -0.1544,-0.097 -0.2141,0 -0.4425,0.1313 -0.6857,0.3941 -0.243,0.2627 -0.3646,0.5091 -0.3646,0.7398 z m 1.2711,0.2154 1.7688,0 0,2.16 -1.7688,0 0,-2.16 z m 2.4318,-4.5348 c -0.3019,0 -0.6077,0.144 -0.9173,0.4314 -0.3095,0.2883 -0.4646,0.576 -0.4646,0.864 0,0.2375 0.0978,0.4408 0.2934,0.6103 0.1953,0.1689 0.4292,0.254 0.7019,0.254 0.1621,0 0.3427,-0.0471 0.5417,-0.1406 0.199,-0.0936 0.4053,-0.2268 0.6188,-0.3994 0.4566,-0.3745 1.1755,-1.0406 2.156,-1.9976 L 298.4,666.303 c -0.8773,0.8569 -1.43,1.3782 -1.6582,1.5656 -0.2362,0.1947 -0.4479,0.3421 -0.6356,0.4431 -0.1879,0.1006 -0.3449,0.1508 -0.4699,0.1508 -0.2135,0 -0.396,-0.0573 -0.5474,-0.1724 -0.1508,-0.1154 -0.2265,-0.256 -0.2265,-0.4215 0,-0.1366 0.0479,-0.2517 0.1434,-0.3453 0.0958,-0.0938 0.2138,-0.1403 0.3541,-0.1403 0.125,0 0.2542,0.0267 0.3866,0.0808 0.133,0.0539 0.2619,0.1352 0.3869,0.2429 l 0.4425,-0.5397 c -0.1253,-0.0861 -0.2599,-0.153 -0.4033,-0.1995 -0.144,-0.0471 -0.2855,-0.0703 -0.4261,-0.0703 z m 1.2271,4.5887 c 0,0.2954 0.118,0.5493 0.3538,0.7614 0.2361,0.2126 0.5233,0.3186 0.8623,0.3186 0.2285,0 0.4513,-0.072 0.669,-0.2157 0.2174,-0.1443 0.3999,-0.3422 0.5468,-0.5939 0.14,0.2302 0.3078,0.4136 0.5031,0.5505 0.1951,0.1369 0.396,0.2052 0.6024,0.2052 0.1548,0 0.3007,-0.0286 0.4368,-0.0864 0.1361,-0.0576 0.2486,-0.1367 0.3373,-0.2376 l 0,1.404 -4.7647,0 -0.4972,0.5397 6.3669,0 0.4975,-0.5397 -0.9394,0 0,-3.7794 0,-1.08 -0.6631,0.3781 0,0.7019 0,1.9976 c -0.0592,0.072 -0.1272,0.1258 -0.2049,0.1618 -0.0771,0.036 -0.1562,0.0542 -0.2376,0.0542 -0.28,0 -0.5269,-0.1188 -0.7406,-0.3566 -0.2135,-0.2376 -0.3354,-0.5324 -0.3646,-0.885 l -0.608,0.3779 c 0.1035,0.2803 0.14,0.3883 0.1105,0.3234 -0.0958,0.1658 -0.2194,0.2971 -0.3702,0.3943 -0.1513,0.0975 -0.3044,0.146 -0.4586,0.146 -0.2137,0 -0.3963,-0.0797 -0.5474,-0.2376 -0.1514,-0.1587 -0.2268,-0.3489 -0.2268,-0.572 0,-0.4465 0.1806,-0.8858 0.5417,-1.3175 0.3612,-0.4318 0.8439,-0.7847 1.448,-1.0585 l -0.1658,-0.2699 c -0.7589,0.3456 -1.3632,0.7813 -1.8128,1.3065 -0.4496,0.5256 -0.6744,1.0619 -0.6744,1.6087 z m 4.6653,4.1034 -0.6304,0.5942 0.6304,0.5938 0.6406,-0.5938 -0.6406,-0.5942 z m 4.322,-3.4013 0,1.404 -0.7518,0 -0.4974,0.5397 4.7868,0 0.4969,-0.5397 -0.9394,0 0,-3.7794 0,-1.08 -0.6633,0.3243 0,0.7557 0,0.4428 -2.4318,-1.5228 -0.3314,0.54 2.321,1.2957 c -0.5822,0.1298 -1.0593,0.3458 -1.4315,0.6483 -0.3722,0.3019 -0.5581,0.6259 -0.5581,0.9714 z m 2.4318,-1.4249 0,2.8289 -1.7685,0 0,-1.512 c 0,-0.3237 0.1695,-0.612 0.5085,-0.8634 0.3388,-0.252 0.7589,-0.4034 1.26,-0.4535 z m 1.7796,0.7769 c 0,0.3311 0.1732,0.612 0.5196,0.8425 0.3467,0.2304 0.7631,0.3452 1.2492,0.3452 0.2288,0 0.4626,-0.0558 0.7019,-0.1675 0.2398,-0.1111 0.4663,-0.2713 0.6797,-0.4802 l 0,1.512 -3.5481,0 -0.4975,0.5397 5.1514,0 0.4972,-0.5397 -0.9397,0 0,-3.7794 0,-1.08 -0.6633,0.3243 0,0.7557 0,0.8099 c -0.1916,-0.2231 -0.4215,-0.3958 -0.6908,-0.5185 -0.2687,-0.1222 -0.5541,-0.1837 -0.8566,-0.1837 -0.3756,0 -0.7367,0.1749 -1.0834,0.5239 -0.3464,0.3492 -0.5196,0.7149 -0.5196,1.0958 z m 1.2161,-1.1335 c 0.1621,0 0.3078,0.0141 0.4368,0.0433 0.129,0.0287 0.2415,0.0683 0.3373,0.1185 l -0.9397,1.3499 c -0.1624,-0.0434 -0.2951,-0.1296 -0.3982,-0.2594 -0.1032,-0.1293 -0.1545,-0.2769 -0.1545,-0.4422 0,-0.2231 0.0697,-0.4139 0.2097,-0.5726 0.1401,-0.1585 0.3096,-0.2375 0.5086,-0.2375 z m 1.1055,0.3242 c 0.2358,0.108 0.4238,0.2356 0.5635,0.3833 0.1403,0.1474 0.2101,0.2897 0.2101,0.426 0,0.1803 -0.1089,0.3328 -0.326,0.459 -0.2174,0.1261 -0.4771,0.189 -0.779,0.189 -0.1032,0 -0.2007,-0.009 -0.2934,-0.0269 -0.0915,-0.0179 -0.1783,-0.0451 -0.2593,-0.0811 l 0.8841,-1.3493 z m 3.3712,-0.4861 c -0.1842,0 -0.3685,0.1205 -0.5527,0.3614 -0.184,0.2412 -0.2758,0.4811 -0.2758,0.718 0,0.1514 0.0533,0.2792 0.1598,0.3833 0.1066,0.1046 0.2379,0.157 0.3924,0.157 l 2.0454,0 0,-0.6477 -1.5477,0 0,-0.6483 c 0,-0.0862 -0.0224,-0.1618 -0.0663,-0.2265 -0.0445,-0.0649 -0.0958,-0.0972 -0.1551,-0.0972 z m -1.1602,3.3474 -0.4975,0.5397 2.8188,0 0.4975,-0.5397 -2.8188,0 z m 3.4152,-2.3754 c 0,0.1579 0.0609,0.3053 0.1825,0.4422 0.1217,0.1366 0.2818,0.2412 0.4811,0.3132 -0.3464,0.1228 -0.6265,0.3223 -0.8402,0.5996 -0.2137,0.2769 -0.3206,0.5813 -0.3206,0.9124 0,0.2373 0.0921,0.4408 0.2764,0.61 0.1842,0.1693 0.405,0.2535 0.663,0.2535 0.2288,0 0.4609,-0.0967 0.6968,-0.2912 0.2355,-0.1944 0.354,-0.3852 0.354,-0.5723 0,-0.2233 -0.0757,-0.4141 -0.2268,-0.5726 -0.1516,-0.1581 -0.3339,-0.2375 -0.5473,-0.2375 -0.0888,0 -0.1809,0.0235 -0.2767,0.07 -0.0955,0.0471 -0.1877,0.1134 -0.2764,0.2001 0.0372,-0.1871 0.1293,-0.3583 0.2764,-0.513 0.1477,-0.1548 0.3319,-0.2719 0.553,-0.351 0.2727,0.072 0.5491,0.108 0.8292,0.108 l 0.2764,-0.54 c -0.4128,0 -0.7648,-0.0683 -1.056,-0.2052 -0.2908,-0.1363 -0.4365,-0.3019 -0.4365,-0.4963 0,-0.1656 0.0757,-0.3056 0.2262,-0.4213 0.1514,-0.1151 0.3339,-0.1726 0.5474,-0.1726 0.3098,0 0.6211,0.0952 0.9343,0.2863 0.3129,0.1905 0.5913,0.455 0.8345,0.7931 l 0,2.16 -0.9394,0 -0.3869,0.5397 2.4318,0 0.4975,-0.5397 -0.9397,0 0,-3.7794 0,-1.08 -0.6633,0.3243 0,0.7557 0,0.7019 c -0.2137,-0.209 -0.4402,-0.3691 -0.68,-0.4808 -0.2393,-0.1114 -0.4731,-0.1672 -0.7013,-0.1672 -0.3909,0 -0.7835,0.1513 -1.1778,0.4538 -0.3943,0.3022 -0.5916,0.6012 -0.5916,0.8963 z m 0.3872,1.8893 c 0.1698,0 0.3132,0.0578 0.4309,0.1729 0.1179,0.1154 0.1771,0.2554 0.1771,0.4212 0,0.0717 -0.0277,0.135 -0.083,0.1888 -0.0553,0.0539 -0.1196,0.0811 -0.1933,0.0811 -0.1551,0 -0.2858,-0.0576 -0.3924,-0.1729 -0.1068,-0.1151 -0.1607,-0.2554 -0.1607,-0.421 0,-0.0723 0.0224,-0.1349 0.0664,-0.189 0.0447,-0.0539 0.096,-0.0811 0.155,-0.0811 z m 4.4439,-1.5659 c 0,0.0865 0.0388,0.1625 0.1162,0.2268 0.0771,0.0652 0.167,0.0975 0.2704,0.0975 l 2.2663,0 0,1.7277 -2.9514,0 -0.4975,0.5397 4.5542,0 0.4974,-0.5397 -0.9397,0 0,-3.7794 0,-1.08 -0.663,0.3243 0,0.7557 0,1.404 -1.4371,0 0,-0.5941 c 0,-0.072 -0.0224,-0.135 -0.0661,-0.1888 -0.0445,-0.0539 -0.0958,-0.0811 -0.155,-0.0811 -0.1622,0 -0.3685,0.1494 -0.6194,0.4482 -0.25,0.2984 -0.3753,0.5451 -0.3753,0.7392 z m 4.4107,-0.3234 c 0,0.0575 0.0275,0.1074 0.0828,0.1505 0.055,0.0434 0.1199,0.0649 0.1936,0.0649 l 0.3313,0 0,2.16 -0.9839,0 -0.4974,0.5397 5.0187,0 0.4975,-0.5397 -0.9394,0 0,-3.7794 0,-1.08 -0.6633,0.3243 0,0.7557 0,0.972 -1.7691,0 0,-0.3781 c 0,-0.0862 -0.0219,-0.1619 -0.0661,-0.2268 -0.0445,-0.0646 -0.0958,-0.097 -0.1545,-0.097 -0.2137,0 -0.4425,0.1313 -0.6854,0.3941 -0.2435,0.2627 -0.3648,0.5091 -0.3648,0.7398 z m 1.2708,0.2154 1.7691,0 0,2.16 -1.7691,0 0,-2.16 z m 1.4924,-3.509 -0.4419,0.5939 c 0.1032,0.0862 0.2449,0.1525 0.4255,0.1995 0.1802,0.0468 0.3886,0.0703 0.6244,0.0703 0.2432,0 0.5602,-0.1544 0.9505,-0.4646 0.3906,-0.3092 0.8294,-0.7486 1.3155,-1.3169 l -0.2763,-0.2158 c -0.8328,0.9715 -1.4225,1.4573 -1.7683,1.4573 -0.14,0 -0.2823,-0.0269 -0.4257,-0.0807 -0.1438,-0.0542 -0.2781,-0.1353 -0.4037,-0.243"/><path id="path60" style="fill:#292929;fill-opacity:1;fill-rule:evenodd;stroke:none" d="m 276.0715,656.1332 c 0,0.1006 0.0321,0.1882 0.0964,0.2639 0.0644,0.0754 0.1395,0.1131 0.2254,0.1131 l 0.5788,0 0,0.7537 c -0.4972,0.1261 -0.9006,0.3291 -1.2095,0.61 -0.3085,0.2807 -0.4627,0.5803 -0.4627,0.8983 0,0.2429 0.0941,0.4504 0.2829,0.6219 0.1883,0.1718 0.4159,0.258 0.6815,0.258 0.2401,0 0.5471,-0.1823 0.9201,-0.5468 0.3733,-0.3643 0.5599,-0.6642 0.5599,-0.8986 l 0,-1.6965 1.9295,0 0,2.5137 -1.158,0 -0.3858,0.6282 2.8304,0 0.5789,-0.6282 -1.0936,0 0,-4.3988 0,-1.2568 -0.7719,0.377 0,0.8798 0,1.1311 -1.9295,0 0,-0.5029 c 0,-0.1004 -0.0258,-0.1885 -0.0774,-0.2636 -0.0513,-0.0751 -0.1114,-0.1131 -0.18,-0.1131 -0.2316,0 -0.5253,0.157 -0.8813,0.4711 -0.3563,0.3143 -0.5341,0.576 -0.5341,0.7855 z m 0.9006,1.5083 0,0.8166 c 0,0.1593 -0.0386,0.2934 -0.1157,0.4023 -0.0773,0.1091 -0.1672,0.1635 -0.2698,0.1635 -0.1463,0 -0.2687,-0.0482 -0.3674,-0.1448 -0.0983,-0.0961 -0.1477,-0.2154 -0.1477,-0.3583 0,-0.1673 0.0814,-0.3328 0.2441,-0.4961 0.163,-0.1633 0.3821,-0.2911 0.6565,-0.3832 z m 4.3101,1.3824 -0.5791,0.6282 2.9199,0 0.5794,-0.6282 -1.0936,0 0,-4.3988 0,-1.2568 -0.7719,0.5031 0,0.7537 0,4.3988 -1.0547,0 z m 4.5283,-5.6556 -0.7721,0.7543 0.7721,0.754 0.7719,-0.754 -0.7719,-0.7543 z m 5.3779,4.0217 0,1.6339 -0.875,0 -0.5789,0.6282 5.5707,0 0.5788,-0.6282 -1.0936,0 0,-4.3988 0,-1.2568 -0.7719,0.377 0,0.8798 0,0.5154 -2.8301,-1.7722 -0.3861,0.6284 2.7014,1.508 c -0.6774,0.1508 -1.2327,0.402 -1.6659,0.754 -0.4328,0.3521 -0.6494,0.7288 -0.6494,1.1313 z m 2.8301,-1.6591 0,3.293 -2.0585,0 0,-1.76 c 0,-0.3767 0.197,-0.7118 0.5916,-1.0052 0.3946,-0.2931 0.8835,-0.4691 1.4669,-0.5278 z m 3.4736,-2.3626 -0.7722,0.7543 0.7722,0.754 0.7719,-0.754 -0.7719,-0.7543 z m 7.5132,-0.0627 -1.5437,1.6339 c -0.3518,0.3433 -0.6219,0.6676 -0.8107,0.9737 -0.1885,0.3059 -0.2829,0.5675 -0.2829,0.7855 0,0.1003 0.0385,0.1885 0.1156,0.2639 0.0774,0.0754 0.1673,0.1134 0.2702,0.1134 0.1372,0 0.2616,-0.0295 0.3733,-0.0885 0.1114,-0.0586 0.1888,-0.1338 0.2316,-0.2259 0.0516,0.0417 0.0921,0.1023 0.1224,0.182 0.0298,0.0796 0.0445,0.1655 0.0445,0.2577 l 0,1.8226 -1.5307,0 -0.5788,0.6282 6.484,0 0.5788,-0.6282 -1.0936,0 0,-4.3988 0,-1.2568 -0.7719,0.5031 0,0.7537 0,1.7595 c -0.2058,-0.1426 -0.4136,-0.2514 -0.6239,-0.3268 -0.21,-0.0754 -0.4096,-0.1134 -0.5984,-0.1134 -0.1797,0 -0.3688,0.0442 -0.5661,0.1324 -0.197,0.0875 -0.3943,0.2114 -0.5916,0.3707 -0.0428,-0.2514 -0.1286,-0.4674 -0.2573,-0.6471 -0.1287,-0.1803 -0.2787,-0.2996 -0.4505,-0.3586 l 1.9299,-1.7592 -0.4502,-0.377 z m -0.0643,3.2046 c 0.2404,0 0.5037,0.0649 0.7911,0.195 0.2875,0.1298 0.5811,0.3163 0.8813,0.5587 l 0,1.76 -2.3153,0 0,-2.1996 c 0.1199,-0.1004 0.2355,-0.1781 0.3472,-0.2328 0.1111,-0.0541 0.2101,-0.0813 0.2957,-0.0813 z m 2.0843,4.8381 -0.7333,0.6917 0.7333,0.6911 0.7458,-0.6911 -0.7458,-0.6917 z m 3.126,-7.98 -0.7721,0.7543 0.7721,0.754 0.7719,-0.754 -0.7719,-0.7543 z m 7.7962,-1.3196 -1.2221,1.6966 c -0.3945,0 -0.729,0.0861 -1.0034,0.2579 -0.2744,0.1718 -0.4119,0.379 -0.4119,0.6219 0,0.1426 0.0559,0.2617 0.1673,0.3583 0.1116,0.0964 0.2486,0.1443 0.4115,0.1443 0.1548,0 0.307,-0.0629 0.4573,-0.1882 0.1499,-0.1256 0.2764,-0.2934 0.3792,-0.5029 0.3518,0 0.6543,0.1111 0.9071,0.3334 0.2529,0.2219 0.3793,0.4875 0.3793,0.7977 0,0.1003 -0.0385,0.1885 -0.1156,0.2639 -0.0771,0.0751 -0.167,0.1128 -0.2699,0.1128 -0.0944,0 -0.2339,-0.0312 -0.4184,-0.0941 -0.1842,-0.063 -0.3237,-0.0941 -0.4181,-0.0941 -0.3175,0 -0.654,0.1882 -1.0103,0.5652 -0.3554,0.3773 -0.5335,0.7333 -0.5335,1.0686 0,0.243 0.0876,0.4505 0.2637,0.6223 0.1754,0.1717 0.388,0.2573 0.6369,0.2573 l 1.4151,0 0,0.7543 -2.9075,0 -0.5789,0.6282 4.5545,0 0.5788,-0.6282 -0.8753,0 0,-1.5083 -1.8006,0 c -0.1806,0 -0.3325,-0.0606 -0.457,-0.1822 -0.1241,-0.1214 -0.1868,-0.2702 -0.1868,-0.4462 0,-0.1171 0.0454,-0.22 0.1353,-0.3079 0.0904,-0.0878 0.195,-0.1318 0.3152,-0.1318 0.1117,0 0.2724,0.0309 0.4827,0.0941 0.2098,0.063 0.3708,0.0939 0.4825,0.0939 0.2659,0 0.5468,-0.1735 0.8421,-0.5216 0.296,-0.3473 0.4439,-0.6764 0.4439,-0.9862 0,-0.3098 -0.1329,-0.5904 -0.3985,-0.8416 -0.2662,-0.2514 -0.6046,-0.411 -1.0162,-0.4779 l 1.2863,-1.3825 -0.5147,-0.377 z m 2.3547,3.079 c -0.2146,0 -0.4292,0.1403 -0.6435,0.421 -0.2143,0.2806 -0.3214,0.5592 -0.3214,0.8359 0,0.1757 0.0621,0.3246 0.1865,0.4459 0.1245,0.1216 0.2767,0.1825 0.4567,0.1825 l 2.3799,0 0,-0.7543 -1.8011,0 0,-0.754 c 0,-0.1006 -0.0258,-0.1888 -0.0771,-0.2639 -0.0516,-0.0757 -0.1114,-0.1131 -0.18,-0.1131 z m -1.351,3.8962 -0.5788,0.6282 3.2805,0 0.5791,-0.6282 -3.2808,0 z m 3.0234,0 -0.5791,0.6282 5.0817,0 0.5794,-0.6282 -0.991,0 0,-1.76 -1.6081,0 c -0.3691,0 -0.6863,-0.1105 -0.9521,-0.3328 -0.2662,-0.2219 -0.3989,-0.4881 -0.3989,-0.7979 0,-0.3101 0.1327,-0.5758 0.3989,-0.798 0.2658,-0.2219 0.583,-0.3331 0.9521,-0.3331 0.1199,0 0.2361,0.0168 0.3473,0.0499 0.1116,0.034 0.2103,0.0797 0.2959,0.1386 -0.0601,0.0752 -0.1074,0.1613 -0.1412,0.2577 -0.0348,0.0961 -0.0516,0.199 -0.0516,0.3079 0,0.1006 0.0494,0.1882 0.148,0.2639 0.0987,0.0754 0.2208,0.1131 0.3668,0.1131 0.1712,0 0.3538,-0.1092 0.5465,-0.3266 0.1928,-0.2183 0.2894,-0.4232 0.2894,-0.616 0,-0.1006 -0.0408,-0.2009 -0.1224,-0.3016 -0.0814,-0.1003 -0.1911,-0.1882 -0.3274,-0.2639 l 0.6426,-1.1939 -0.5788,-0.2512 -0.4499,1.3198 c -0.0944,-0.0419 -0.2061,-0.0737 -0.335,-0.0944 -0.1282,-0.0209 -0.2742,-0.0317 -0.4371,-0.0317 -0.4805,0 -0.965,0.2455 -1.4539,0.735 -0.4887,0.4904 -0.7331,0.9783 -0.7331,1.4641 0,0.4023 0.1758,0.7438 0.5275,1.0247 0.3513,0.2801 0.7759,0.421 1.2734,0.421 l 1.0292,0 0,1.0054 -3.3191,0 z m 4.8246,0 -0.5794,0.6282 2.9205,0 0.5792,-0.6282 -1.0939,0 0,-4.3988 0,-1.2568 -0.7716,0.5031 0,0.7537 0,4.3988 -1.0548,0 z m 0.9264,0.6282 -1.0299,0.7537 c -0.1454,0.1004 -0.2851,0.178 -0.4181,0.2328 -0.1326,0.0541 -0.2508,0.0813 -0.3537,0.0813 -0.1539,0 -0.3022,-0.0207 -0.4434,-0.0626 -0.1417,-0.042 -0.2724,-0.1046 -0.3923,-0.1888 l -0.4504,0.7543 c 0.1457,0.0672 0.2874,0.1173 0.4243,0.1511 0.1372,0.0331 0.2662,0.0501 0.3861,0.0501 0.1715,0 0.3583,-0.0442 0.5596,-0.1321 0.2012,-0.0876 0.4096,-0.2154 0.6239,-0.3832 l 1.5437,-1.194 -1.1576,1.7595 c -0.1029,0.1511 -0.2254,0.2682 -0.3668,0.3521 -0.1415,0.0839 -0.2855,0.1255 -0.4312,0.1255 -0.0856,0 -0.1797,-0.0147 -0.2829,-0.0439 -0.1029,-0.0295 -0.214,-0.0692 -0.3342,-0.1193 l -0.4504,0.8166 c 0.3087,0.1089 0.5834,0.1633 0.8232,0.1633 0.2231,0 0.4674,-0.1148 0.7333,-0.3453 0.2662,-0.2307 0.519,-0.5468 0.7594,-0.949 l 1.0933,-1.8221 -0.8359,0 z m 4.9787,-6.4091 -2.6376,2.8272 c -0.0601,0.0672 -0.1071,0.1446 -0.1417,0.2325 -0.034,0.0881 -0.0513,0.178 -0.0513,0.2701 0,0.1426 0.045,0.2622 0.1352,0.3583 0.0901,0.0967 0.195,0.1449 0.3152,0.1449 0.0686,0 0.1437,-0.0272 0.2253,-0.082 0.0814,-0.0544 0.1565,-0.1318 0.2251,-0.2324 l 0.0641,0 c 0.0431,0.0921 0.0754,0.1905 0.0966,0.2951 0.0216,0.1049 0.0324,0.216 0.0324,0.3333 l 0,1.6339 -1.4412,0 -0.5788,0.6282 3.8081,0 0.5791,-0.6282 -1.5957,0 0,-2.1996 c 0,-0.2345 -0.0771,-0.4482 -0.2315,-0.6407 -0.1545,-0.1927 -0.3561,-0.3353 -0.6044,-0.4274 l 0,-0.063 2.1872,-2.0732"/><path id="path62" style="fill:#292929;fill-opacity:1;fill-rule:evenodd;stroke:none" d="m 275.762,648.9272 c 0.0674,-0.007 0.1267,-0.0116 0.1771,-0.015 0.0505,-0.004 0.1296,-0.0122 0.2376,-0.0252 0.108,0.013 0.1939,0.0215 0.2582,0.0252 0.0638,0.003 0.1364,0.008 0.2172,0.015 l 0,-6.9386 c -0.0808,0.0136 -0.1568,0.0221 -0.2277,0.0255 -0.0708,0.004 -0.1465,0.008 -0.2276,0.0153 -0.074,-0.007 -0.1448,-0.0116 -0.212,-0.0153 -0.0675,-0.003 -0.1417,-0.0119 -0.2228,-0.0255 l 0,6.9386 z m 2.8015,0 c 0.0674,-0.007 0.1267,-0.0116 0.1774,-0.015 0.0502,-0.004 0.1293,-0.0122 0.2373,-0.0252 0.108,0.013 0.1941,0.0215 0.2582,0.0252 0.0641,0.003 0.1364,0.008 0.2171,0.015 l 0,-6.9386 c -0.0807,0.0136 -0.1567,0.0221 -0.2276,0.0255 -0.0703,0.004 -0.1465,0.008 -0.2276,0.0153 -0.074,-0.007 -0.1449,-0.0116 -0.212,-0.0153 -0.0678,-0.003 -0.1418,-0.0119 -0.2228,-0.0255 l 0,6.9386 z m 2.2861,-6.9386 c 0.1415,0.89 0.2928,1.91 0.4547,3.06 0.1621,1.1494 0.3342,2.4426 0.5162,3.8786 l 0.2528,0 c 0.7146,-1.4023 1.2473,-2.4372 1.5976,-3.1048 0.351,-0.6678 0.7722,-1.4062 1.2646,-2.2155 0.3237,0.5935 0.674,1.2356 1.0519,1.9267 0.3773,0.6913 0.7007,1.2835 0.9706,1.7753 0.2696,0.4924 0.5629,1.0318 0.8801,1.6183 l 0.2223,0 c 0.2293,-2.2317 0.506,-4.5448 0.8291,-6.9386 -0.148,0.0136 -0.2523,0.0221 -0.3132,0.0255 -0.0607,0.004 -0.1281,0.008 -0.2024,0.0153 -0.2427,-0.0272 -0.3875,-0.0408 -0.4348,-0.0408 -0.0474,0.6003 -0.1046,1.2475 -0.1718,1.9423 -0.0675,0.6945 -0.1182,1.2169 -0.152,1.5678 -0.0337,0.3504 -0.0978,0.9272 -0.1919,1.7291 -1.2611,-2.2722 -2.1475,-3.9784 -2.6597,-5.1179 l -0.1015,0 c -0.472,0.9845 -0.8765,1.8006 -1.2135,2.448 -0.3368,0.6474 -0.8022,1.5375 -1.3958,2.6699 -0.0672,-0.5726 -0.1233,-1.0482 -0.1667,-1.4258 -0.0442,-0.3776 -0.0859,-0.7534 -0.1267,-1.1279 -0.0402,-0.3744 -0.0808,-0.811 -0.121,-1.3099 -0.0408,-0.4992 -0.0675,-0.9572 -0.0811,-1.3756 -0.0808,0.0136 -0.1482,0.0221 -0.2024,0.0255 -0.0538,0.004 -0.1111,0.008 -0.1718,0.0153 -0.0541,-0.007 -0.1031,-0.0116 -0.1468,-0.0153 -0.0436,-0.003 -0.106,-0.0119 -0.1868,-0.0255 z m 12.308,6.9386 c 0.0678,-0.007 0.1267,-0.0116 0.1772,-0.015 0.0505,-0.004 0.1298,-0.0122 0.2378,-0.0252 0.1077,0.013 0.1936,0.0215 0.258,0.0252 0.0638,0.003 0.1366,0.008 0.2174,0.015 l 0,-6.9386 c -0.0808,0.0136 -0.1568,0.0221 -0.2276,0.0255 -0.0709,0.004 -0.1466,0.008 -0.2276,0.0153 -0.0743,-0.007 -0.1452,-0.0116 -0.2126,-0.0153 -0.0672,-0.003 -0.1412,-0.0119 -0.2226,-0.0255 l 0,6.9386 z m 2.8423,-6.9386 0,6.9386 0.3943,0 c 0.802,-0.8697 1.6044,-1.7396 2.4069,-2.6093 0.8025,-0.8699 1.605,-1.7399 2.4072,-2.6098 l 0.1009,0 0,5.2191 c 0.0542,-0.007 0.1032,-0.0116 0.1469,-0.015 0.0436,-0.004 0.0859,-0.0122 0.1267,-0.0252 0.0672,0.013 0.1227,0.0215 0.1664,0.0252 0.0442,0.003 0.0898,0.008 0.1369,0.015 l 0,-6.9386 -0.324,0 c -0.5593,0.6409 -2.1909,2.4647 -4.8949,5.472 l -0.1009,0 0,-5.472 c -0.0675,0.0136 -0.1233,0.0221 -0.167,0.0255 -0.0436,0.004 -0.0929,0.008 -0.1468,0.0153 -0.0471,-0.007 -0.0879,-0.0116 -0.121,-0.0153 -0.0341,-0.003 -0.078,-0.0119 -0.1316,-0.0255 z m 7.8582,6.9386 3.2162,0 c 0.8425,0 1.4933,-0.1851 1.952,-0.5564 0.4586,-0.3705 0.7653,-0.794 0.9201,-1.2694 0.155,-0.4748 0.2324,-0.915 0.2324,-1.3198 0,-0.5797 -0.1077,-1.1511 -0.3234,-1.7147 -0.2154,-0.5626 -0.6049,-1.0431 -1.1679,-1.4408 -0.5632,-0.3977 -1.3303,-0.5967 -2.3009,-0.5967 l -2.5285,0 0,6.8978 z m 0.8898,-0.4147 0,-6.0282 c 0.6472,-0.0402 1.1934,-0.0606 1.6387,-0.0606 0.6001,0.0204 1.1073,0.157 1.522,0.4096 0.4147,0.2526 0.7282,0.6171 0.9408,1.0925 0.212,0.4753 0.3186,1.04 0.3186,1.6942 0,0.6945 -0.093,1.2405 -0.2784,1.6385 -0.1853,0.3977 -0.4263,0.6825 -0.7231,0.8546 -0.2968,0.1718 -0.661,0.2982 -1.0922,0.3793 -0.1417,0.0201 -0.3036,0.0337 -0.4855,0.0402 -0.182,0.007 -0.364,0.0136 -0.5463,0.0204 -0.1417,0.0136 -0.3353,0.0136 -0.5816,0 -0.2458,-0.0133 -0.4839,-0.0269 -0.713,-0.0405 z m 6.4123,-3.0645 c -0.0136,0.6273 0.1247,1.2172 0.4147,1.7699 0.29,0.5528 0.7163,1.0015 1.2793,1.3453 0.5629,0.3439 1.2152,0.5157 1.957,0.5157 l 0.0808,0 c 0.6406,-0.007 1.2101,-0.108 1.7093,-0.3031 0.4989,-0.1955 0.9037,-0.4552 1.2138,-0.7789 0.3098,-0.3237 0.5394,-0.688 0.6877,-1.0925 0.1482,-0.4045 0.2222,-0.8362 0.2222,-1.2946 0,-0.7551 -0.1684,-1.4181 -0.5057,-1.9876 -0.3367,-0.5698 -0.7988,-1.0043 -1.3853,-1.3045 -0.5868,-0.2999 -1.2274,-0.4502 -1.9216,-0.4502 l -0.0408,0 c -1.0182,0.0136 -1.8842,0.3067 -2.5991,0.8799 -0.7146,0.5729 -1.0851,1.4732 -1.1123,2.7006 z m 0.9913,-0.0406 c 0,-0.6743 0.1162,-1.2509 0.3486,-1.7297 0.2325,-0.4787 0.5613,-0.841 0.9859,-1.0871 0.4246,-0.2457 0.9071,-0.3727 1.4468,-0.3792 0.4782,-0.007 0.9301,0.1213 1.3547,0.3843 0.4252,0.2625 0.7673,0.6421 1.0267,1.1376 0.2597,0.4961 0.3997,1.0403 0.4201,1.6339 0.0471,1.0519 -0.1789,1.8689 -0.678,2.4522 -0.4989,0.5834 -1.1869,0.8921 -2.0631,0.9258 -0.6273,0.007 -1.1529,-0.1417 -1.5781,-0.4453 -0.4246,-0.303 -0.7412,-0.7112 -0.9501,-1.2237 -0.2089,-0.5119 -0.3135,-1.0684 -0.3135,-1.6688 z m 7.8786,-3.4188 0,6.9386 2.2147,0 c 1.4561,0 2.1844,-0.5159 2.1844,-1.5474 0,-0.4113 -0.1148,-0.7532 -0.3439,-1.0267 -0.2296,-0.2733 -0.5108,-0.4802 -0.8444,-0.622 -0.3334,-0.1414 -0.6353,-0.2293 -0.9051,-0.263 0.4853,-0.6001 0.9536,-1.1855 1.4054,-1.7549 0.4521,-0.5698 0.9071,-1.1447 1.3657,-1.7246 -0.1754,0.0136 -0.307,0.0221 -0.3946,0.0255 -0.0875,0.004 -0.1887,0.008 -0.3033,0.0153 -0.0337,-0.007 -0.081,-0.0116 -0.1417,-0.0153 -0.0604,-0.003 -0.1216,-0.007 -0.182,-0.01 -0.0606,-0.003 -0.108,-0.008 -0.1417,-0.0156 -0.4584,0.6474 -0.9133,1.2662 -1.3652,1.8558 -0.4518,0.5905 -0.873,1.1047 -1.2639,1.5429 l -0.3946,0 0,-3.3987 c -0.108,0.0136 -0.1925,0.0221 -0.2532,0.0255 -0.0603,0.004 -0.1278,0.008 -0.2018,0.0153 -0.0675,-0.007 -0.1301,-0.0116 -0.1874,-0.0153 -0.0572,-0.003 -0.1397,-0.0119 -0.2474,-0.0255 z m 0.8898,3.7729 c 0.6877,-0.0542 1.2237,-0.005 1.6078,0.1465 0.3844,0.1517 0.6474,0.3507 0.7889,0.597 0.1414,0.2458 0.2123,0.4935 0.2123,0.743 0,0.4654 -0.1718,0.8008 -0.5156,1.0063 -0.3439,0.206 -0.7722,0.3089 -1.2847,0.3089 -0.1885,0 -0.3385,-0.002 -0.4499,-0.005 -0.1114,-0.003 -0.2307,-0.005 -0.3588,-0.005 l 0,-2.7915 z m 5.2891,-3.7321 0,6.8978 3.5904,0 c -0.007,-0.0604 -0.0116,-0.1131 -0.015,-0.1567 -0.003,-0.044 -0.0116,-0.1063 -0.0253,-0.1871 0.0137,-0.0403 0.0219,-0.0828 0.0253,-0.1267 0.003,-0.0437 0.008,-0.0924 0.015,-0.1463 -0.4382,0.0944 -1.0414,0.1417 -1.8099,0.1417 l -0.8901,0 0,-2.5489 1.5772,0 c 0.0677,0 0.1755,0.007 0.324,0.0201 0.1483,0.0136 0.3373,0.0273 0.5661,0.0406 -0.007,-0.0471 -0.0116,-0.0896 -0.015,-0.1267 -0.003,-0.0369 -0.0117,-0.089 -0.0253,-0.1565 0.0136,-0.0405 0.0219,-0.0828 0.0253,-0.1267 0.003,-0.0437 0.009,-0.0924 0.015,-0.1466 -0.0941,0.007 -0.2288,0.017 -0.4042,0.0304 -0.1755,0.0136 -0.3371,0.0238 -0.4859,0.0303 l -1.5772,0 0,-2.9633 c 0.0743,0 0.1517,-0.007 0.2324,-0.0205 0.2359,0.007 0.6727,0.027 1.3096,0.0607 0.6373,0.0337 1.0438,0.0675 1.2187,0.1012 -0.007,-0.0473 -0.0117,-0.0893 -0.0151,-0.1264 -0.003,-0.0372 -0.0116,-0.0893 -0.0252,-0.1568 0,0.007 0.0136,-0.1046 0.0403,-0.3336"/><path id="path64" style="fill:#302175;fill-opacity:1;fill-rule:evenodd;stroke:none" d="m 298.7787,730.8431 -0.0694,-13.9828 c -4.7656,-1.529 -7.403,-5.2089 -8.1315,-8.412 l -14.0394,-0.0292 c 0.9249,10.9791 10.5633,21.2402 22.2403,22.424"/><path id="path66" style="fill:#302175;fill-opacity:1;fill-rule:evenodd;stroke:none" d="m 298.6665,679.8186 0.0989,13.9828 c -4.7659,1.5292 -7.5305,5.0975 -8.259,8.3001 l -14.1364,0.0292 c 1.5253,-11.4636 11.1592,-21.447 22.2965,-22.3121"/><path id="path68" style="fill:#302175;fill-opacity:1;fill-rule:evenodd;stroke:none" d="m 305.1748,679.7041 -0.0989,14.0973 c 4.7662,1.5292 7.5308,5.0975 8.2593,8.3001 l 14.1364,0.0292 c -1.5253,-11.4636 -10.8726,-21.1034 -22.2968,-22.4266"/><path id="path70" style="fill:#302175;fill-opacity:1;fill-rule:evenodd;stroke:none" d="m 331.6056,737.041 0,-15.4236 c -4.3174,-0.9141 -7.2799,-3.9004 -8.4322,-8.458 l -15.3964,0 c 0.1973,1.7728 0.5519,3.4787 1.0449,5.1086 l 9.3849,0 c 1.1526,4.5576 4.1151,7.5439 8.4325,8.458 l 0,9.3671 c 1.6022,0.4692 3.263,0.7898 4.9663,0.9479"/><path id="path72" style="fill:#302175;fill-opacity:1;fill-rule:evenodd;stroke:none" d="m 326.6393,742.1496 0,-15.4236 c -4.3174,-0.9141 -7.2799,-3.9004 -8.4325,-8.458 l -15.3963,0 c 1.4694,13.1896 11.5483,22.7407 23.8288,23.8816 z m -1.3881,-15.0789 -0.3991,-0.1349 -0.3912,-0.1482 -0.3824,-0.1608 -0.3744,-0.1732 -0.3651,-0.1856 -0.3564,-0.1976 -0.3475,-0.2103 -0.3384,-0.2226 -0.3291,-0.2341 -0.3198,-0.246 -0.3095,-0.258 -0.3002,-0.2693 -0.2903,-0.2806 -0.2801,-0.292 -0.2698,-0.303 -0.2597,-0.3141 -0.2494,-0.3248 -0.2387,-0.3354 -0.2279,-0.3458 -0.2177,-0.3563 -0.2066,-0.366 -0.1962,-0.3761 -0.1848,-0.3858 -0.1741,-0.3957 -0.163,-0.4048 -0.1522,-0.4145 -0.1406,-0.4237 -0.106,-0.3544 -14.0839,0 0.0575,0.4315 0.2069,1.1744 0.2537,1.152 0.2999,1.1281 0.3439,1.1036 0.3872,1.0783 0.4297,1.0522 0.4709,1.0253 0.5105,0.9978 0.5496,0.9686 0.5868,0.9397 0.6239,0.9093 0.6591,0.8782 0.6933,0.8464 0.7263,0.8136 0.7582,0.7803 0.7892,0.7456 0.8183,0.7106 0.8476,0.6744 0.8745,0.6372 0.9008,0.5995 0.9261,0.561 0.9502,0.5216 0.9728,0.4813 0.9944,0.4399 1.0154,0.398 1.0341,0.3552 1.0531,0.3112 1.0698,0.2668 1.0862,0.2214 1.1013,0.1751 0.3619,0.0417 0,-14.1063 -0.2916,-0.0771"/><path id="path74" style="fill:#302175;fill-opacity:1;fill-rule:evenodd;stroke:none" d="m 336.6995,732.0969 0,-15.4239 c -4.3175,-0.9136 -7.2797,-3.9002 -8.4322,-8.458 l -15.3961,0 c 0.1908,1.7135 0.5281,3.3647 0.9955,4.9444 l 0.7237,0 -0.1151,-0.3693 -0.2993,-1.1279 -0.254,-1.1517 -0.2069,-1.175 -0.0576,-0.4314 14.0837,0 0.1063,0.3546 0.1408,0.4238 0.152,0.4144 0.163,0.4048 0.174,0.3957 0.1848,0.3861 0.1962,0.3758 0.2066,0.3663 0.2175,0.356 0.2282,0.3455 0.2386,0.3357 0.2495,0.3245 0.2596,0.3141 0.2699,0.3033 0.2803,0.292 0.2897,0.2806 0.3002,0.2696 0.3101,0.2577 0.3195,0.246 0.3291,0.2344 0.3382,0.2223 0.3475,0.2103 0.3569,0.1976 0.3651,0.1857 0.3739,0.1731 0.3827,0.1608 0.3911,0.1479 0.3992,0.1355 0.407,0.1225 0.2923,0.0771 0,14.1066 -0.3623,-0.0417 -1.1013,-0.1751 -1.0859,-0.2214 -1.0701,-0.2671 -0.7858,-0.2321 0,0.7242 c 1.6416,0.4899 3.3452,0.8232 5.0939,0.9857"/></g></g></svg>