<?xml version="1.0" encoding="UTF-8"?>
<svg version="1.1" xmlns="http://www.w3.org/2000/svg" width="183" height="96">
<path d="M0 0 C5.57857767 2.36153847 8.09559467 9.87074071 10.3203125 15.22265625 C11.47926888 19.15023064 11.99176816 21.97577137 11.4453125 26.03515625 C9.9453125 28.2109375 9.9453125 28.2109375 7.4453125 30.03515625 C4.48109129 30.40899547 1.95717971 30.55073514 -0.9921875 30.47265625 C-2.11850586 30.48329102 -2.11850586 30.48329102 -3.26757812 30.49414062 C-7.85789787 30.44165676 -10.76374219 29.87648107 -14.5546875 27.03515625 C-14.70929569 17.25066678 -10.60426625 9.19816297 -4.63671875 1.58984375 C-2.5546875 0.03515625 -2.5546875 0.03515625 0 0 Z " fill="#398BCF" transform="translate(48.5546875,36.96484375)"/>
<path d="M0 0 C1.175625 0.0825 2.35125 0.165 3.5625 0.25 C4.2225 1.24 4.8825 2.23 5.5625 3.25 C5.95050781 2.75886719 6.33851562 2.26773438 6.73828125 1.76171875 C9.17461696 -0.25725753 10.63180672 -0.05898805 13.75 0.0625 C14.65105469 0.08957031 15.55210938 0.11664063 16.48046875 0.14453125 C17.51107422 0.19673828 17.51107422 0.19673828 18.5625 0.25 C17.80682948 4.03630702 16.43652727 5.6541044 13.5625 8.25 C14.56693142 11.49508611 15.66551294 14.45602588 17.1875 17.5 C18.5625 20.25 18.5625 20.25 18.5625 22.25 C15.51225136 22.53775931 12.60069925 22.70410807 9.5625 22.25 C7.625 19.8125 7.625 19.8125 6.5625 17.25 C5.9025 16.92 5.2425 16.59 4.5625 16.25 C4.583125 17.054375 4.60375 17.85875 4.625 18.6875 C4.5625 21.25 4.5625 21.25 3.5625 22.25 C1.22952567 22.29092937 -1.10455225 22.29241723 -3.4375 22.25 C-3.63340444 18.77125243 -3.81781592 15.29199096 -4 11.8125 C-4.05607422 10.81927734 -4.11214844 9.82605469 -4.16992188 8.80273438 C-4.21826172 7.85849609 -4.26660156 6.91425781 -4.31640625 5.94140625 C-4.3635376 5.06685791 -4.41066895 4.19230957 -4.45922852 3.29125977 C-4.42186807 -0.21852364 -3.59850662 0.26170957 0 0 Z " fill="#378BD0" transform="translate(71.4375,35.75)"/>
<path d="M0 0 C2.12660108 0.01171681 4.25301482 0.10947118 6.375 0.25 C7.53773437 0.31703125 8.70046875 0.3840625 9.8984375 0.453125 C13.13048696 1.02300778 14.10991714 1.40274328 16 4 C17.3899408 6.7798816 17.18488204 8.9186326 17 12 C15.6 15.7 15.6 15.7 13 17 C11.00039988 17.039992 8.99952758 17.04346799 7 17 C6.67 18.65 6.34 20.3 6 22 C4.02 22 2.04 22 0 22 C-1.09460611 15.02188603 -1.3524287 8.05893948 -1 1 C-0.67 0.67 -0.34 0.34 0 0 Z M7 6 C7 7.98 7 9.96 7 12 C7.99 12 8.98 12 10 12 C10 10.35 10 8.7 10 7 C9.01 6.67 8.02 6.34 7 6 Z " fill="#0E1016" transform="translate(91,41)"/>
<path d="M0 0 C3.9375 0.625 3.9375 0.625 6.375 2.25 C8.30981132 5.1909132 8.86559193 7.10150456 8.9375 10.625 C7.5635627 13.50372577 6.18760563 15.37489437 3.9375 17.625 C-0.97996739 18.18929954 -2.98060765 18.39134041 -7.0625 15.5 C-9.0625 12.625 -9.0625 12.625 -9.6875 9.6875 C-8.56369633 4.180862 -5.82814018 0.30502416 0 0 Z " fill="#358BD6" transform="translate(47.0625,18.375)"/>
<path d="M0 0 C3 1.5625 3 1.5625 5 4 C5.79720496 8.38462729 5.51613309 10.24192952 3 13.9375 C-1.15080314 16.79117716 -3.0301078 16.7099846 -8 16 C-11.06458538 13.95694308 -11.82153128 12.55920198 -12.9375 9.0625 C-13.01221891 5.40127319 -12.21363944 3.8695326 -10 1 C-6.78551092 -0.60724454 -3.48629255 -0.46661659 0 0 Z M-5 5 C-5.33 6.65 -5.66 8.3 -6 10 C-4.68 10.33 -3.36 10.66 -2 11 C-0.98888907 7.95086772 -0.98888907 7.95086772 -2 5 C-2.99 5 -3.98 5 -5 5 Z " fill="#050505" transform="translate(131,42)"/>
<path d="M0 0 C1.98 0 3.96 0 6 0 C7 1 7 1 7.1328125 3.9140625 C7.10697179 16.18839808 7.10697179 16.18839808 6 22 C4.02 22 2.04 22 0 22 C0 14.74 0 7.48 0 0 Z " fill="#020203" transform="translate(110,36)"/>
<path d="M0 0 C1.9375 0.875 1.9375 0.875 3.1875 2.5625 C4.40091302 6.3038568 4.45903954 9.4966455 3.0625 13.1875 C1.9375 14.875 1.9375 14.875 -0.0625 15.875 C-2.06210012 15.914992 -4.06297242 15.91846799 -6.0625 15.875 C-6.3925 16.535 -6.7225 17.195 -7.0625 17.875 C-7.69644697 13.83358806 -8.18654452 9.9684693 -8.0625 5.875 C-7.4025 5.875 -6.7425 5.875 -6.0625 5.875 C-6.0625 7.525 -6.0625 9.175 -6.0625 10.875 C-5.0725 10.875 -4.0825 10.875 -3.0625 10.875 C-3.3925 9.946875 -3.7225 9.01875 -4.0625 8.0625 C-5.0625 4.875 -5.0625 4.875 -5.0625 1.875 C-2.0625 -0.125 -2.0625 -0.125 0 0 Z " fill="#060606" transform="translate(104.0625,42.125)"/>
<path d="M0 0 C3.96 0 7.92 0 12 0 C11.67 1.65 11.34 3.3 11 5 C10.01 5.33 9.02 5.66 8 6 C7.34 9.3 6.68 12.6 6 16 C4.02 16 2.04 16 0 16 C0 10.72 0 5.44 0 0 Z " fill="#030303" transform="translate(138,42)"/>
<path d="M0 0 C0.33 0.99 0.66 1.98 1 3 C2.65 3.33 4.3 3.66 6 4 C6 6.83967231 5.59732819 9.23735711 5 12 C7.31 12 9.62 12 12 12 C11.01 13.485 11.01 13.485 10 15 C5.06770767 15.64685801 3.09551776 15.77599175 -1 12.875 C-3.34966143 9.49736169 -3.68543938 8.02695637 -3 4 C-1.5 1.625 -1.5 1.625 0 0 Z " fill="#3684C5" transform="translate(41,21)"/>
<path d="M0 0 C0.33 0 0.66 0 1 0 C1.33 3.63 1.66 7.26 2 11 C2.99 10.67 3.98 10.34 5 10 C7.1875 11.4375 7.1875 11.4375 9 13 C8.34 14.98 7.68 16.96 7 19 C4.69 19 2.38 19 0 19 C0 12.73 0 6.46 0 0 Z " fill="#4394D1" transform="translate(68,39)"/>
<path d="M0 0 C1.98 0 3.96 0 6 0 C7 1 7 1 7.1328125 3.94921875 C7.12894531 5.79966797 7.12894531 5.79966797 7.125 7.6875 C7.12757812 8.90824219 7.13015625 10.12898438 7.1328125 11.38671875 C7.01147168 14.68790285 6.62682546 17.7614018 6 21 C5.67 21 5.34 21 5 21 C5 14.73 5 8.46 5 2 C3.68 2 2.36 2 1 2 C1 6.95 1 11.9 1 17 C0.67 17 0.34 17 0 17 C0 11.39 0 5.78 0 0 Z " fill="#1A1A1B" transform="translate(110,36)"/>
<path d="M0 0 C0.721875 0.268125 1.44375 0.53625 2.1875 0.8125 C2.1875 1.4725 2.1875 2.1325 2.1875 2.8125 C1.1975 3.1425 0.2075 3.4725 -0.8125 3.8125 C-0.4825 4.8025 -0.1525 5.7925 0.1875 6.8125 C-0.8025 7.3075 -0.8025 7.3075 -1.8125 7.8125 C-2.4725 7.4825 -3.1325 7.1525 -3.8125 6.8125 C-4.1425 7.8025 -4.4725 8.7925 -4.8125 9.8125 C-5.4725 9.8125 -6.1325 9.8125 -6.8125 9.8125 C-7.625 7.625 -7.625 7.625 -7.8125 4.8125 C-4.05559392 -0.27037293 -4.05559392 -0.27037293 0 0 Z " fill="#3484C7" transform="translate(48.8125,37.1875)"/>
<path d="M0 0 C0.33 0.99 0.66 1.98 1 3 C1.66 3 2.32 3 3 3 C2.67 4.65 2.34 6.3 2 8 C1.01 8 0.02 8 -1 8 C-0.01 9.98 0.98 11.96 2 14 C-1 13 -1 13 -3 10 C-3.37478243 6.47704517 -3.41127245 4.65118137 -1.5 1.625 C-1.005 1.08875 -0.51 0.5525 0 0 Z " fill="#2F78BE" transform="translate(41,21)"/>
<path d="M0 0 C2 3 2 3 3 7 C0.03 7 -2.94 7 -6 7 C-6 5.68 -6 4.36 -6 3 C-5.01 3 -4.02 3 -3 3 C-3 2.34 -3 1.68 -3 1 C-2.01 0.67 -1.02 0.34 0 0 Z " fill="#317FC2" transform="translate(87,51)"/>
<path d="M0 0 C1.37478516 0.01740234 1.37478516 0.01740234 2.77734375 0.03515625 C3.69644531 0.04417969 4.61554688 0.05320313 5.5625 0.0625 C6.27277344 0.07410156 6.98304687 0.08570313 7.71484375 0.09765625 C3.96484375 3.97265625 3.96484375 3.97265625 1.71484375 5.09765625 C1.38484375 5.75765625 1.05484375 6.41765625 0.71484375 7.09765625 C-2.06907455 5.7056971 -2.26414622 3.94189846 -3.28515625 1.09765625 C-2.28515625 0.09765625 -2.28515625 0.09765625 0 0 Z " fill="#3D8ED4" transform="translate(81.28515625,36.90234375)"/>
<path d="M0 0 C3.3 0 6.6 0 10 0 C8.953173 4.18730802 8.1823078 5.29986005 5 8 C4.34 8 3.68 8 3 8 C2.67 7.01 2.34 6.02 2 5 C3.2065625 4.5359375 3.2065625 4.5359375 4.4375 4.0625 C6.89080405 3.23664655 6.89080405 3.23664655 8 2 C5.36 1.67 2.72 1.34 0 1 C0 0.67 0 0.34 0 0 Z " fill="#3171B6" transform="translate(80,36)"/>
<path d="M0 0 C2.31 0.33 4.62 0.66 7 1 C6.67 1.99 6.34 2.98 6 4 C3.69 4.33 1.38 4.66 -1 5 C-1 2 -1 2 0 0 Z " fill="#378BD4" transform="translate(47,29)"/>
<path d="M0 0 C2.375 -0.125 2.375 -0.125 5 0 C5.66 0.66 6.32 1.32 7 2 C6.625 4.125 6.625 4.125 6 6 C1.125 3.375 1.125 3.375 0 0 Z " fill="#3E97DA" transform="translate(47,40)"/>
<path d="M0 0 C0.66 0.66 1.32 1.32 2 2 C1.34 3.65 0.68 5.3 0 7 C-0.66 7 -1.32 7 -2 7 C-2 7.99 -2 8.98 -2 10 C-2.99 9.67 -3.98 9.34 -5 9 C-3.68 7.02 -2.36 5.04 -1 3 C-1.66 3 -2.32 3 -3 3 C-3 2.34 -3 1.68 -3 1 C-2.01 0.67 -1.02 0.34 0 0 Z " fill="#3697DB" transform="translate(82,43)"/>
<path d="M0 0 C7.34177215 -0.48945148 7.34177215 -0.48945148 10.4375 1.8125 C12 4 12 4 13 7 C10.00306862 6.00102287 8.97290587 5.34869747 7 3 C7 2.34 7 1.68 7 1 C4.36 1.33 1.72 1.66 -1 2 C-0.67 1.34 -0.34 0.68 0 0 Z " fill="#246DB8" transform="translate(43,19)"/>
<path d="M0 0 C1 2 1 2 0.5 5.4375 C-0.26285394 8.95312924 -0.26285394 8.95312924 1 12 C0.34 12 -0.32 12 -1 12 C-2.73745313 9.34271875 -3.00831972 8.10399645 -2.75 4.875 C-2 2 -2 2 0 0 Z " fill="#0D0D0D" transform="translate(121,44)"/>
<path d="M0 0 C1.65 0 3.3 0 5 0 C4.625 2.9375 4.625 2.9375 4 6 C3.01 6.495 3.01 6.495 2 7 C2 6.34 2 5.68 2 5 C1.34 4.67 0.68 4.34 0 4 C0 2.68 0 1.36 0 0 Z " fill="#3086C4" transform="translate(51,26)"/>
<path d="M0 0 C0 1.32 0 2.64 0 4 C-2.31 4 -4.62 4 -7 4 C-5.53303752 1.06607504 -3.25996861 0 0 0 Z " fill="#298CD5" transform="translate(75,54)"/>
</svg>
